<?xml version="1.0" standalone="no"?>
<!DOCTYPE svg PUBLIC "-//W3C//DTD SVG 20010904//EN"
 "http://www.w3.org/TR/2001/REC-SVG-20010904/DTD/svg10.dtd">
<svg version="1.0" xmlns="http://www.w3.org/2000/svg"
 width="500.000000pt" height="500.000000pt" viewBox="0 0 500.000000 500.000000"
 preserveAspectRatio="xMidYMid meet">

<g transform="translate(0.000000,500.000000) scale(0.100000,-0.100000)"
fill="#000000" stroke="none">
<path d="M2037 3623 c-3 -5 -5 -89 -6 -188 0 -176 -1 -180 -23 -195 -38 -24
-87 -80 -109 -122 -77 -151 -21 -357 122 -448 66 -43 127 -60 218 -61 97 -1
167 24 238 86 l52 46 138 -1 c76 -1 144 -1 151 0 9 0 12 28 12 106 l0 105 45
-7 c58 -8 58 5 0 47 l-46 33 1 300 1 301 -395 3 c-217 1 -397 -1 -399 -5z
m286 -43 c-10 -21 -13 -46 -9 -78 11 -89 11 -94 -6 -106 -14 -8 -24 -6 -48 7
-50 30 -100 -4 -86 -58 9 -35 -21 -64 -76 -74 l-48 -8 0 173 0 174 144 0 144
0 -15 -30z m497 -260 l0 -289 -87 45 c-49 26 -90 48 -92 50 -2 2 23 33 57 68
62 65 71 79 52 91 -6 4 -8 11 -4 16 3 5 1 16 -5 23 -6 7 -9 21 -5 30 11 29 -5
63 -36 76 -27 11 -34 10 -77 -18 -27 -16 -73 -37 -103 -47 -68 -21 -82 -34
-95 -87 -9 -37 -14 -43 -43 -49 -46 -9 -49 -15 -27 -56 25 -46 82 -83 137 -90
24 -3 79 -22 123 -43 44 -20 108 -47 143 -60 l62 -23 0 -103 0 -104 -141 0
c-106 0 -140 3 -137 12 3 7 22 16 43 20 65 14 85 41 85 115 0 50 -4 67 -20 83
-23 23 -64 25 -99 6 -20 -11 -28 -11 -50 0 -14 8 -36 14 -48 14 -65 0 -124 50
-154 129 -23 63 -57 104 -101 122 -21 9 -27 16 -22 28 4 9 9 38 12 64 5 57 20
67 66 44 27 -12 38 -13 57 -3 25 12 25 15 17 131 -2 27 3 50 15 68 l17 27 230
0 230 0 0 -290z m-110 86 c6 -8 10 -28 9 -43 -2 -15 0 -33 4 -40 4 -6 4 -19 1
-28 -4 -10 -1 -21 7 -26 11 -6 -1 -24 -52 -75 l-66 -66 -47 41 c-27 23 -67 47
-91 53 -42 11 -43 13 -38 42 10 53 21 64 85 85 35 12 81 32 103 46 46 28 68
31 85 11z m-501 -183 c32 -19 48 -37 62 -72 49 -116 85 -150 174 -166 52 -9
81 -28 101 -67 63 -122 -121 -298 -310 -298 -54 0 -137 19 -176 40 -40 21
-121 102 -140 140 -86 173 -20 389 139 446 45 17 94 10 150 -23z m254 -14 c41
-11 107 -63 95 -75 -4 -3 -21 -1 -38 6 -17 7 -34 10 -37 6 -4 -3 8 -12 25 -18
37 -14 43 -38 9 -38 -61 0 -172 88 -152 120 8 13 50 13 98 -1z m141 -87 c8
-14 -23 -45 -39 -38 -13 5 -13 9 -3 26 13 20 33 26 42 12z m118 -58 c97 -49
171 -94 164 -101 -10 -10 -286 89 -286 104 0 8 21 43 26 43 2 0 45 -21 96 -46z
m-78 -108 c18 -86 17 -109 -5 -132 -22 -24 -87 -35 -74 -14 13 21 6 101 -10
126 -15 24 -15 25 16 38 40 17 68 10 73 -18z"/>
<path d="M2468 3541 c-32 -26 -41 -65 -18 -86 24 -22 44 -19 80 11 25 21 30
33 28 58 -3 26 -7 31 -34 34 -19 2 -40 -5 -56 -17z m66 3 c24 -9 19 -40 -10
-63 -58 -46 -100 -8 -46 41 36 31 34 30 56 22z"/>
<path d="M2672 3548 c-7 -7 -12 -20 -12 -29 0 -29 22 -34 42 -9 14 17 16 26 7
36 -14 17 -22 17 -37 2z m28 -17 c0 -12 -20 -25 -27 -18 -7 7 6 27 18 27 5 0
9 -4 9 -9z"/>
<path d="M2307 3313 c-4 -3 -7 -17 -7 -30 0 -20 5 -24 23 -21 30 4 39 58 9 58
-10 0 -22 -3 -25 -7z m27 -27 c-3 -9 -10 -13 -16 -10 -5 3 -4 12 3 20 15 18
22 13 13 -10z"/>
<path d="M2120 3130 c-6 -11 -14 -19 -18 -19 -28 5 -33 -3 -30 -48 3 -48 3
-48 41 -51 34 -3 38 -1 43 27 4 17 13 36 20 42 19 16 18 33 -4 52 -24 22 -39
21 -52 -3z m47 -15 c3 -9 -2 -24 -11 -34 -9 -10 -16 -27 -16 -39 0 -15 -6 -22
-18 -22 -45 0 -59 64 -17 80 14 5 25 14 25 20 0 16 30 12 37 -5z"/>
<path d="M1966 2961 c-21 -23 -24 -74 -6 -96 15 -18 54 -20 68 -2 5 6 9 35 9
62 -2 46 -4 50 -28 53 -15 2 -32 -5 -43 -17z m57 -8 c4 -3 2 -12 -4 -19 -7 -9
-7 -19 0 -32 15 -28 -9 -48 -38 -32 -23 12 -27 40 -11 71 10 19 40 26 53 12z"/>
<path d="M2150 2953 c-6 -15 -15 -36 -21 -46 -15 -27 15 -57 58 -57 31 0 39 8
33 35 -1 5 7 15 17 22 16 13 16 16 3 41 -11 19 -25 28 -48 30 -27 3 -33 -1
-42 -25z m61 7 c19 -11 27 -40 10 -40 -5 0 -11 -12 -13 -27 -4 -32 -25 -40
-53 -19 -16 12 -18 17 -7 27 6 7 12 23 12 35 0 19 8 28 28 33 2 1 12 -4 23 -9z"/>
<path d="M2312 2958 c-17 -17 -15 -69 4 -96 8 -12 26 -22 40 -22 19 0 24 5 24
25 0 14 7 28 15 31 18 7 20 45 3 62 -7 7 -26 12 -43 12 -17 0 -36 -5 -43 -12z
m69 -8 c23 -13 26 -40 4 -40 -14 0 -19 -11 -16 -37 3 -24 -36 -13 -47 12 -16
36 -15 52 6 64 22 13 29 13 53 1z"/>
<path d="M2064 2805 c-14 -21 -14 -29 -2 -61 7 -20 19 -39 26 -41 20 -8 64 26
59 46 -2 10 0 26 5 35 25 45 -59 65 -88 21z m72 -12 c-3 -8 -6 -25 -6 -38 0
-30 -30 -42 -47 -19 -17 24 -16 49 2 67 18 19 58 10 51 -10z"/>
<path d="M2319 2771 c-33 -34 -36 -52 -12 -76 45 -45 162 30 133 85 -17 33
-84 27 -121 -9z m101 9 c12 -8 11 -10 -8 -10 -30 0 -78 -25 -91 -47 -9 -16
-10 -16 -11 5 0 15 11 29 33 42 36 22 55 24 77 10z m5 -29 c8 -14 -44 -51 -71
-51 -30 0 -31 11 -1 30 44 29 63 35 72 21z"/>
<path d="M3023 2778 c-19 -25 -20 -45 -11 -193 5 -82 6 -174 3 -202 -6 -52 -7
-53 -41 -53 l-34 0 0 94 c0 84 -3 98 -23 121 -43 51 -150 43 -177 -13 -7 -15
-15 -66 -18 -114 l-4 -88 -34 0 c-19 0 -34 1 -34 3 0 13 -23 124 -27 130 -3 4
-11 3 -19 -4 -11 -9 -13 -25 -8 -69 8 -71 -7 -123 -48 -167 -29 -30 -29 -33
-17 -67 14 -40 29 -45 54 -19 23 22 55 98 55 129 0 23 3 24 58 24 32 0 63 5
69 11 8 8 13 8 17 0 10 -15 109 -14 124 1 9 9 15 9 24 0 17 -17 83 -15 101 2
10 10 16 55 20 158 4 78 10 185 13 236 7 88 6 92 -13 92 -11 0 -25 -6 -30 -12z
m-138 -408 c0 -34 -1 -35 -40 -35 -34 0 -40 3 -43 23 -6 42 5 53 45 50 36 -3
38 -5 38 -38z"/>
<path d="M3147 2775 c-13 -13 -15 -46 -10 -242 3 -126 9 -232 14 -237 4 -5 15
-6 24 -3 13 6 15 35 13 248 -3 248 -7 269 -41 234z"/>
<path d="M1941 2570 c-132 -7 -130 -4 -132 -228 -1 -106 2 -177 9 -184 5 -5
20 -8 33 -6 l24 3 0 190 c0 179 1 190 19 193 33 7 46 -25 46 -115 0 -76 2 -86
25 -108 19 -20 34 -25 75 -25 28 0 61 5 72 11 14 8 23 8 31 0 14 -14 77 -14
113 -1 19 8 30 8 38 0 16 -16 41 -12 60 9 17 19 18 19 37 0 10 -10 33 -19 50
-19 25 0 32 6 46 37 27 66 -2 253 -40 253 -7 0 -22 -6 -32 -14 -21 -15 -20
-20 25 -138 13 -31 20 -64 17 -73 -11 -27 -44 -17 -67 20 -23 38 -40 38 -40 1
0 -13 -7 -29 -15 -36 -22 -18 -42 2 -50 51 -4 21 -10 41 -15 44 -14 9 -42 -26
-34 -44 4 -9 7 -25 8 -36 1 -17 -5 -20 -44 -20 l-45 0 -5 97 c-7 142 -17 148
-209 138z m154 -200 c0 -34 -1 -35 -40 -35 -37 0 -40 2 -43 29 -4 34 12 47 53
44 27 -3 30 -6 30 -38z"/>
<path d="M2880 2027 c0 -32 -2 -33 -30 -29 -59 8 -91 -54 -55 -106 13 -17 24
-21 60 -20 l45 2 0 93 c0 55 -4 93 -10 93 -5 0 -10 -15 -10 -33z m-16 -53 c32
-31 16 -84 -24 -84 -21 0 -29 6 -34 24 -7 27 1 57 18 68 16 11 23 10 40 -8z"/>
<path d="M2066 2042 c-13 -21 -65 -166 -61 -170 7 -7 25 9 25 23 0 38 75 37
92 -1 6 -13 15 -24 20 -24 11 0 12 -1 -23 89 -30 80 -43 99 -53 83z m34 -89
c0 -7 -12 -13 -26 -13 -20 0 -25 4 -20 16 3 9 9 28 13 42 l6 27 13 -30 c7 -16
13 -36 14 -42z"/>
<path d="M2940 2040 c0 -5 5 -10 10 -10 6 0 10 5 10 10 0 6 -4 10 -10 10 -5 0
-10 -4 -10 -10z"/>
<path d="M2278 2010 c-10 -11 -13 -20 -8 -20 6 0 10 -20 10 -44 0 -24 3 -51 6
-60 7 -17 54 -22 54 -6 0 6 -3 9 -7 9 -27 -4 -33 4 -33 44 0 36 4 46 23 55
l22 11 -22 0 c-12 1 -23 8 -25 16 -2 13 -6 12 -20 -5z"/>
<path d="M2548 2011 c-9 -10 -12 -23 -8 -27 5 -5 10 -31 12 -59 3 -46 5 -50
31 -53 15 -2 27 1 27 7 0 6 -9 11 -20 11 -17 0 -20 7 -20 49 0 43 3 50 23 54
22 4 22 4 0 6 -12 0 -23 8 -25 16 -2 13 -6 13 -20 -4z"/>
<path d="M2180 1933 c0 -76 18 -84 22 -10 3 45 6 52 26 55 36 5 25 22 -13 19
l-35 -2 0 -62z"/>
<path d="M2427 1993 c-18 -17 -5 -44 28 -60 53 -25 47 -48 -12 -43 -13 1 -23
-3 -23 -9 0 -12 48 -15 74 -5 9 3 16 17 16 31 0 18 -9 28 -36 39 -42 18 -40
40 5 38 17 -1 31 2 31 7 0 10 -73 12 -83 2z"/>
<path d="M2636 1945 c2 -31 6 -60 9 -65 3 -6 28 -9 56 -8 l49 2 0 63 c0 48 -3
63 -14 63 -10 0 -13 -8 -10 -28 7 -45 -11 -82 -41 -82 -24 0 -25 3 -25 55 0
40 -4 55 -14 55 -10 0 -13 -13 -10 -55z"/>
<path d="M2940 1935 c0 -37 4 -65 10 -65 6 0 10 28 10 65 0 37 -4 65 -10 65
-6 0 -10 -28 -10 -65z"/>
<path d="M3012 1988 c-19 -19 -15 -82 6 -101 26 -24 68 -21 86 5 34 48 7 108
-48 108 -17 0 -37 -5 -44 -12z m76 -30 c14 -30 8 -54 -18 -68 -40 -22 -72 66
-32 89 23 14 35 9 50 -21z"/>
</g>
</svg>
